<svg width="20" height="21" fill="none" xmlns="http://www.w3.org/2000/svg"><path d="M15.554 20.371a11.222 11.222 0 01-5.266-1.317l-.5-.276a19.96 19.96 0 01-8.144-8.113l-.277-.498A11.111 11.111 0 010 4.877v-.742c0-.59.235-1.156.655-1.571L2.533.694a.835.835 0 011.311.165l2.5 4.272c.253.435.18.985-.178 1.34l-2.1 2.091a.552.552 0 00-.1.653l.39.73a15.004 15.004 0 006.11 6.077l.733.398a.557.557 0 00.655-.1l2.1-2.091a1.114 1.114 0 011.345-.177l4.288 2.49a.83.83 0 01.167 1.306l-1.878 1.87a2.227 2.227 0 01-1.578.653h-.744z" fill="#7B7B7B"/></svg>