<svg width="18" height="17" fill="none" xmlns="http://www.w3.org/2000/svg"><path fill-rule="evenodd" clip-rule="evenodd" d="M8.9.782C3.985.782 0 4.408 0 8.882c0 4.473 3.985 8.1 8.9 8.1 4.916 0 8.9-3.627 8.9-8.1 0-2.148-.937-4.209-2.606-5.728C13.524 1.635 11.26.782 8.9.782zm7.12 8.1a11.961 11.961 0 00-3.141-.421 12.18 12.18 0 00-1.887.17 27.847 27.847 0 00-.703-1.45 15.098 15.098 0 003.951-2.6c1.155 1.185 1.79 2.717 1.78 4.301zm-6.345-2.77c1.32-.603 2.523-1.4 3.56-2.357A7.59 7.59 0 008.9 2.402a7.847 7.847 0 00-1.709.195 26.29 26.29 0 012.484 3.515zM5.892 3.018a25.938 25.938 0 012.572 3.596 14.837 14.837 0 01-4.904.85 16.942 16.942 0 01-1.575-.089c.506-1.918 1.944-3.522 3.907-4.357zM1.78 8.574v.308c.004 1.598.657 3.139 1.833 4.325 1.385-2.05 3.543-3.57 6.07-4.276a19.9 19.9 0 00-.614-1.232 16.134 16.134 0 01-5.51.98 15.94 15.94 0 01-1.78-.105zm2.83 5.467c1.221-1.922 3.206-3.346 5.545-3.976a22.396 22.396 0 011.326 4.86c-2.3.823-4.907.491-6.87-.876v-.008zm6.862-4.252a24.575 24.575 0 011.264 4.544c1.634-.95 2.772-2.465 3.15-4.196a10.413 10.413 0 00-3.008-.445c-.47.004-.94.036-1.406.097z" fill="#7B7B7B"/></svg>