<svg width="18" height="17" fill="none" xmlns="http://www.w3.org/2000/svg"><path fill-rule="evenodd" clip-rule="evenodd" d="M0 2.604C0 1.55.895.698 2 .698c.53 0 1.04.2 1.414.558.375.357.586.842.586 1.348C4 3.656 3.105 4.51 2 4.51s-2-.854-2-1.906zm17.5 8.014c.035-2.063-1.443-3.871-3.55-4.346A4.615 4.615 0 0010 7.292v-.4a.489.489 0 00-.5-.477H7a.49.49 0 00-.5.477v9.53a.49.49 0 00.5.476h2.5c.276 0 .5-.213.5-.477v-5.374c-.025-.957.675-1.793 1.66-1.983a2.07 2.07 0 011.64.43c.452.368.709.91.7 1.476v5.451c0 .264.224.477.5.477H17c.276 0 .5-.213.5-.477v-5.803zM4 6.892v9.53a.489.489 0 01-.5.476H1a.489.489 0 01-.5-.477v-9.53a.49.49 0 01.5-.476h2.5c.276 0 .5.214.5.477z" fill="#7B7B7B"/></svg>