<svg width="19" height="17" fill="none" xmlns="http://www.w3.org/2000/svg"><path d="M18.796 2.961a7.562 7.562 0 01-1.739 1.695v.523a11.69 11.69 0 01-3.407 8.283 11.388 11.388 0 01-8.217 3.35 11.38 11.38 0 01-5.122-1.2.238.238 0 01-.141-.218v-.105c0-.136.11-.247.244-.247a8.26 8.26 0 004.812-1.752 4.105 4.105 0 01-3.656-2.437.25.25 0 01.027-.24.243.243 0 01.217-.103c.48.05.966.004 1.429-.133C1.499 10.011.188 8.545 0 6.75a.249.249 0 01.1-.22c.07-.05.16-.06.238-.027.468.209.973.319 1.485.323A4.102 4.102 0 01.217 2.124a.504.504 0 01.855-.171 11.553 11.553 0 007.903 3.693 3.855 3.855 0 01-.112-.952A4.149 4.149 0 0111.466.899a4.06 4.06 0 014.454.996 8.096 8.096 0 002.246-.79.158.158 0 01.17 0 .164.164 0 010 .171 4.144 4.144 0 01-1.654 1.904 7.976 7.976 0 001.879-.457.149.149 0 01.17 0 .163.163 0 01.066.238z" fill="#7B7B7B"/></svg>